<?xml version="1.0" encoding="UTF-8"?>
<svg id="Layer_1" xmlns="http://www.w3.org/2000/svg" version="1.1" viewBox="0 0 362.9 287.1">
  <!-- Generator: Adobe Illustrator 29.4.0, SVG Export Plug-In . SVG Version: 2.1.0 Build 152)  -->
  <defs>
    <style>
      .st0 {
        fill: #bbe3e5;
      }
    </style>
  </defs>
  <g>
    <path class="st0" d="M8.5,5.9c.7-.3,1.4-.2,2.1-.2,7.6,0,15.3,0,22.9,0,1.6-.2,3.1,1.3,2.9,2.9,0,8.4,0,16.9,0,25.3.2,1.6-1.3,3.1-2.9,2.8-8,0-15.9,0-23.9,0-1.3,0-2.9-1-2.8-2.4,0-8.7,0-17.5,0-26.2,0-1,.8-1.8,1.6-2.2Z"/>
    <path class="st0" d="M47,39.1c8.2-.3,16.5,0,24.7-.1,1.6-.3,3.1.9,3.2,2.5.2,3.8-.4,7.6-.3,11.4,0,3.7-.3,7.3-.3,11,0,2.9,1.5,5.8,4.1,7.2,1.5.9,3.2,1.1,4.9,1.1,6.8.1,13.7,0,20.5.1,1.8-.1,3.2,1.2,4.4,2.3,9,9,18,17.9,27,26.9,1.1.9,1.6,2.6.4,3.6-17.2,17.2-34.3,34.4-51.5,51.5-1.5,1.5-3,3.1-4.6,4.5-1.2,1.1-3.5.2-3.5-1.5-.2-6.3,0-12.7-.2-19-.1-1.4.2-3.4,1.8-3.7,2.2-.2,4.4-.3,6.6-.5,3-.2,6.3.2,9-1.5,2.6-1.7,5-4,6.5-6.8,1.3-2.4.9-5.6-1.1-7.5-3.4-3.5-6.9-6.8-10.4-10.1-1.6-1.6-3.7-2.9-6-3.1-3.5-.4-7,2.5-7.1,6.1,0,6.7,0,13.3-.1,20,0,1.5-1.2,3-2.8,2.9-7.6,0-15.3.3-22.9.5-1.1,0-2.5,0-3.2-1-.8-.9-.7-2.2-.8-3.3,0-7.6,0-15.3,0-22.9,0-1.1,0-2.3.8-3.1.7-.9,2-.9,3.1-.9,5.9,0,11.7,0,17.6-.2,1.8,0,3.8.2,5.5-.8,2.3-1.2,3.6-3.8,3.5-6.4,0-5.7,0-11.5,0-17.2-.1-2.4-.2-5.1-1.8-7.2-1.7-2.2-4.5-3.1-7.2-3.3-6.2,0-12.4,0-18.6,0-1.5,0-3.1-1.2-2.9-2.8,0-8.6,0-17.2,0-25.8-.1-1.2.6-2.2,1.6-2.8Z"/>
    <path class="st0" d="M8.5,72.7c1.2-.3,2.4-.2,3.6-.2,7.1,0,14.3,0,21.4,0,1.5,0,3,1.3,2.9,2.9,0,8.4,0,16.8,0,25.3.1,1.3-1,2.6-2.4,2.4-8.1,0-16.2,0-24.3,0-1.4.2-2.9-1-2.8-2.5,0-8.6,0-17.2,0-25.7,0-1,.8-1.8,1.6-2.2Z"/>
    <path class="st0" d="M8,139.3c.6-.4,1.4-.3,2.2-.3,8,.2,15.9,0,23.9,0,1.4-.2,2.5,1.2,2.5,2.5.1,7.9,0,15.9.2,23.8,0,1.1,0,2.5-.8,3.3-.8.9-2.1.8-3.3.8-7.6-.1-15.3,0-22.9,0-1.5.2-3.1-1-2.9-2.6,0-8.4,0-16.9,0-25.3,0-.9.4-1.8,1.2-2.2Z"/>
  </g>
  <g>
    <path class="st0" d="M68.5,205.4c4.6-1.9,10.7,1.5,10.5,6.7,1,6.4-7.8,10.4-12.3,6.1-4.5-3.2-3.2-10.9,1.8-12.7Z"/>
    <path class="st0" d="M6.3,205.5c3.9,0,7.9,0,11.8,0,0,10.1.2,20.1,0,30.2,2.5-3.5,5.7-6.7,9.9-7.8,8.2-2.4,17.8-.6,23.9,5.7,10.9,10.5,10.6,30.3-.7,40.4-6.1,5.8-15.5,7.7-23.4,4.9-3.9-1.5-6.7-4.7-9.7-7.5,0,2.3,0,4.7,0,7-4,0-8,0-11.9.2,0-24.4,0-48.7,0-73.1ZM28.1,238.3c-9.8,3.2-12.9,16.6-7.2,24.7,4,7,14.4,9.2,20.8,4.3,7.4-5.5,8.7-17.2,2.9-24.4-3.8-4.9-10.7-6.7-16.5-4.6Z"/>
    <path class="st0" d="M89.8,212c3.9,0,7.7,0,11.5,0,0,5.4,0,10.8,0,16.1,4.3,0,8.6,0,12.9,0,0,3.1,0,6.1,0,9.2-4.3,0-8.7,0-13,.1.2,8.6,0,17.3,0,26-.1,2.4.9,4.9,3.3,5.9,2.8.6,5.5-.6,7.7-2.2,1.1,3,2.3,6,3.3,9.1-.5,1.3-2.1,1.5-3.2,2-5.4,1.6-11.8,2-16.9-1-4.2-2.8-5.6-8.1-5.6-12.8,0-9,0-18,0-27-2.5,0-5.1,0-7.6,0,0-3.1,0-6.2,0-9.3,2.6,0,5.1,0,7.7.1,0-5.4,0-10.7,0-16.1Z"/>
    <path class="st0" d="M204.1,234.6c4.9-5.2,12.3-7.6,19.3-7,6,.5,11.1,4,15,8.4,0-2.3.1-4.6.2-6.8,3.8,0,7.6.1,11.4,0,.7,16.5.2,32.9.3,49.4-4,0-7.9.1-11.8,0,0-2.2,0-4.4,0-6.7-3.5,3.2-7,6.8-11.9,7.9-7.6,1.6-16.3-.2-21.9-5.8-10.7-10.1-10.9-29.1-.5-39.5ZM217.7,239.3c-9.6,3.9-12.1,17.9-5.6,25.5,4.6,6,14.2,7.2,20.3,2.7,7.3-5.8,8.3-18,1.8-24.8-3.9-4.8-11.1-5.6-16.6-3.5Z"/>
    <path class="st0" d="M65.8,229.2c3.7-.4,7.4-.9,11.1-.9.2,2.2.5,4.5.5,6.7,0,14.5,0,28.9,0,43.4-3.9,0-7.7,0-11.6,0,.2-16.4,0-32.8.1-49.2Z"/>
    <path class="st0" d="M313.4,234.2c10.3-9.1,28.6-8.5,36.9,3.1,4.8,6.2,5.4,14.3,4.9,21.8-13,0-26-.2-38.9,0,1.3,4.1,4,8,8.2,9.6,7.7,2.9,16.6.8,23.2-3.9,1.8,2.7,3.9,5.3,5.9,7.8-6.3,5.3-14.6,8-22.8,7.7-7.9,0-16.1-3.3-20.9-9.8-7.8-10.7-6.7-27.5,3.6-36.3ZM323.8,239c-4.3,2.2-6.7,6.7-7.4,11.3,9.6-.1,19.1.3,28.7-.2-.9-3.1-1.7-6.5-4.1-8.8-4.5-4.3-11.7-4.8-17.2-2.3Z"/>
    <path class="st0" d="M152.9,229c3.8.1,7.7.1,11.5,0,3.7,11.3,7.1,22.6,10.7,33.9,3.9-11,6.3-22.5,9.6-33.7,4.3,0,8.7,0,13,0-5.7,16.3-10.7,32.8-15.7,49.3-4.4,0-8.8,0-13.2,0-3.1-10.3-6.5-20.5-9.4-30.9-.4-.9-.4-2.1-1.4-2.7-3.4,11.2-6.7,22.4-10.3,33.6-4.2,0-8.5,0-12.7,0-5.4-16.5-10.1-33.3-16.5-49.5,4.6,0,9.1.1,13.7,0,3.4,11.2,5.4,22.8,9.7,33.7,3.8-11.2,6.9-22.6,10.8-33.7Z"/>
    <path class="st0" d="M252.7,229.4c4.5,0,9,0,13.5,0,4.4,13,8.7,26,13.4,38.9,4.8-12.7,9.6-25.6,13.6-38.6,4.4-.4,8.8,0,13.3-.2-6.3,16.4-12.7,32.8-19,49.3-5.2.1-10.4-.1-15.5.1-6.5-16.5-12.6-33.1-19.2-49.5Z"/>
  </g>
</svg>